<svg id="Layer_1" data-name="Layer 1" xmlns="http://www.w3.org/2000/svg" viewBox="0 0 111.62 72.45">
<defs>
    <style>
        .cls-1,.cls-3{stroke:#000;}.cls-1,.cls-2,.cls-3{stroke-miterlimit:10;}.cls-2,.cls-3{fill:#fff;}.cls-2{stroke:#fff;}
        path {
            animation-name: stroke-change; 
            animation-duration: 10s;
        }

        @keyframes stroke-change{
            from {fill: black;}
            to {stroke: orange;}
        } 
    </style>
</defs>
<title>beret-tata</title>
<path class="cls-1" d="M156.58,116.58c-1.7,1.9-4.45,2.52-7.5,2v-2.19c-.78.52-1.63,1-2.54,1.51a14.75,14.75,0,0,0,
2.54.68v11.56h-.38c-5.21-2.49-13.34-4.49-23.17-5.68h0a181.21,181.21,0,0,0-42.73.15c-9.3,1.2-17,3.14-22,5.53H58.43v-8.9c-3.34,1.23-6.56,
1-8.66-.86C46,117,47.24,109.59,52.46,103.78l.72-.77c5.12-8.56,25.82-15,50.57-15,22.73,0,42,5.4,49,12.9a.46.46,0,0,1,.07.07C158.11,106.17,
159.81,113,156.58,116.58Z" transform="translate(-47.1 -78)"/>
<path class="cls-1" d="M148.7,130.13H60.8c5-2.39,12.69-4.33,22-5.53a131.84,131.84,0,0,0,21,1.62,129.41,129.41,0,0,0,21.77-1.77h0C135.36,
125.64,143.49,127.64,148.7,130.13Z" transform="translate(-47.1 -78)"/>
<path class="cls-1" d="M149.08,116.38v2.19a14.75,14.75,0,0,1-2.54-.68C147.45,117.4,148.3,116.9,149.08,116.38Z" 
transform="translate(-47.1 -78)"/><path class="cls-1" d="M125.52,124.45a129.41,129.41,0,0,1-21.77,1.77,131.84,131.84,0,0,1-21-1.62,
181.21,181.21,0,0,1,42.73-.15Z" transform="translate(-47.1 -78)"/><path class="cls-1" d="M149.08,116.38v2.19a14.75,14.75,0,0,1-2.
54-.68C147.45,117.4,148.3,116.9,149.08,116.38Z" transform="translate(-47.1 -78)"/><path class="cls-2" d="M155,136.6C155,144,132.5,150,
104.75,150s-50.24-6-50.24-13.35c0-2.34,2.28-4.55,6.29-6.47,5-2.39,12.69-4.33,22-5.53a181.21,181.21,0,0,1,42.73-.15h0c9.83,1.19,18,3.19,23.17,5.68C152.71,
132.05,155,134.26,155,136.6Z" transform="translate(-47.1 -78)"/><ellipse class="cls-1" cx="123.56" cy="87.11" rx="9.76" ry="3.36" 
transform="translate(-60.76 72.56) rotate(-60)"/><path class="cls-3" d="M143.39,112.39c-3.29,4.56-7.85,7-10.46,
5.57-1.74-.49-3.64-2.74-4.68-5.78-1.33-3.88-.77-7.59,1.25-8.27,1.35-.46,3,.53,4.35,2.4l.36-.52c3.44-4.78,8.28-7.18,10.82-5.35S146.83,107.61,143.39,112.39Z" 
transform="translate(-47.1 -78)"/></svg>