<svg aria-hidden="true" style="position: absolute; width: 0; height: 0; overflow: hidden;" version="1.1" xmlns="http://www.w3.org/2000/svg" xmlns:xlink="http://www.w3.org/1999/xlink">
<defs>
<symbol id="icon-bunny-camera" viewBox="0 0 35 32">
<title>bunny-camera</title>
<path fill="#fff" style="fill: var(--color1, #fff)" stroke-linejoin="miter" stroke-linecap="butt" stroke-miterlimit="10" stroke-width="0.5556" stroke="#000" d="M17.289 14.846c-3.667 0-6.639 2.917-6.639 6.528s2.972 6.528 6.639 6.528 6.636-2.917 6.636-6.528-2.971-6.528-6.636-6.528zM28.157 12.624c-1.229 0.021-2.217 1.022-2.217 2.254 0 1.245 1.009 2.254 2.254 2.254s2.254-1.009 2.254-2.254v-0c-0.014-1.244-1.026-2.247-2.272-2.247-0.007 0-0.014 0-0.021 0h0.001zM17.289 14.846c-3.667 0-6.639 2.917-6.639 6.528s2.972 6.528 6.639 6.528 6.636-2.917 6.636-6.528-2.971-6.528-6.636-6.528zM28.157 12.624c-1.229 0.021-2.217 1.022-2.217 2.254 0 1.245 1.009 2.254 2.254 2.254s2.254-1.009 2.254-2.254v-0c-0.014-1.244-1.026-2.247-2.272-2.247-0.007 0-0.014 0-0.021 0h0.001z"></path>
<path fill="#fff" style="fill: var(--color1, #fff)" stroke-linejoin="miter" stroke-linecap="butt" stroke-miterlimit="10" stroke-width="0.5556" stroke="#000" d="M9.972 10.903v-2.882h-7.34v2.882h-2.361v20.819h34.479v-20.819zM17.289 27.908c-3.667 0-6.639-2.917-6.639-6.528s2.972-6.528 6.639-6.528 6.636 2.917 6.636 6.528-2.971 6.528-6.636 6.528zM28.157 17.139c-1.229-0.021-2.217-1.022-2.217-2.254 0-1.245 1.009-2.254 2.254-2.254s2.254 1.009 2.254 2.254v0c-0.010 1.247-1.024 2.254-2.272 2.254-0.007 0-0.014-0-0.021-0h0.001z"></path>
<path fill="#fff" style="fill: var(--color1, #fff)" stroke-linejoin="miter" stroke-linecap="butt" stroke-miterlimit="10" stroke-width="0.5556" stroke="#000" d="M15.544 6.454c0 1.747-0.522 3.325-1.361 4.444h-4.211v-2.878h-3.172c-0.088-0.459-0.139-0.987-0.139-1.526 0-0.014 0-0.029 0-0.043v0.002c0-3.411 1.989-6.176 4.444-6.176s4.439 2.763 4.439 6.176z"></path>
<path stroke-linejoin="miter" stroke-linecap="butt" stroke-miterlimit="10" stroke-width="0.5556" d="M27.047 6.454c0 1.747-0.522 3.325-1.361 4.444h-6.167c-0.833-1.124-1.361-2.701-1.361-4.444 0-3.411 1.99-6.176 4.444-6.176s4.444 2.763 4.444 6.176z"></path>
<path fill="#fff" style="fill: var(--color1, #fff)" stroke-linejoin="miter" stroke-linecap="butt" stroke-miterlimit="10" stroke-width="0.5556" stroke="#000" d="M13.826 7.178c0 1.6-0.564 2.996-1.397 3.725h-2.457v-2.882h-1.544c-0.034-0.25-0.054-0.539-0.054-0.832 0-0.004 0-0.008 0-0.012v0.001c0-2.361 1.221-4.265 2.726-4.265s2.726 1.91 2.726 4.265z"></path>
<path fill="#fff" style="fill: var(--color1, #fff)" stroke-linejoin="miter" stroke-linecap="butt" stroke-miterlimit="10" stroke-width="0.5556" stroke="#000" d="M25.329 7.485c0 1.4-0.431 2.639-1.096 3.419h-3.261c-0.665-0.781-1.097-2.021-1.097-3.419 0-2.354 1.221-4.264 2.726-4.264s2.728 1.903 2.728 4.264z"></path>
</symbol>
<symbol id="icon-hobi-flower" viewBox="0 0 32 32">
<title>hobi-flower</title>
<path fill="#fff" style="fill: var(--color1, #fff)" stroke-linejoin="miter" stroke-linecap="butt" stroke-miterlimit="10" stroke-width="0.5786" stroke="#000" d="M24.892 17.753c0 0.002 0 0.004 0 0.006 0 0.836-0.129 1.642-0.368 2.4l0.015-0.056c-0.065 0.211-0.145 0.418-0.221 0.622-1.292 3.228-4.628 5.527-8.548 5.527h-0.087c-0.227 0-0.453-0.010-0.675-0.027-3.771-0.289-6.891-2.718-7.955-5.978-0.080-0.242-0.145-0.486-0.204-0.736-0.127-0.527-0.2-1.133-0.201-1.755v-0.001c0-3.058 1.736-5.738 4.339-7.232l0.123-0.069c0.677-0.383 1.46-0.698 2.287-0.903l0.065-0.014c0.695-0.176 1.493-0.277 2.314-0.277 0.979 0 1.925 0.143 2.818 0.41l-0.070-0.018c0.734 0.217 1.37 0.49 1.966 0.826l-0.047-0.024c0.176 0.098 0.349 0.201 0.516 0.31 2.374 1.53 3.933 4.099 3.933 6.992z"></path>
<path fill="#fff" style="fill: var(--color1, #fff)" stroke-linejoin="miter" stroke-linecap="butt" stroke-miterlimit="10" stroke-width="0.5786" stroke="#000" d="M21.195 7.015c0 0.012 0 0.027 0 0.042 0 1.232-0.28 2.399-0.78 3.44l0.021-0.048c-0.549-0.31-1.185-0.58-1.853-0.779l-0.066-0.017c-0.823-0.249-1.769-0.392-2.748-0.392-0.821 0-1.619 0.101-2.382 0.291l0.068-0.014c-0.891 0.219-1.675 0.534-2.399 0.941l0.047-0.024c-0.48-0.993-0.761-2.159-0.761-3.391 0-0.015 0-0.030 0-0.045v0.002c0-3.714 2.43-6.726 5.425-6.726s5.428 3.006 5.428 6.72z"></path>
<path fill="#fff" style="fill: var(--color1, #fff)" stroke-linejoin="miter" stroke-linecap="butt" stroke-miterlimit="10" stroke-width="0.5786" stroke="#000" d="M6.648 17.753c0 0.003 0 0.006 0 0.009 0 0.619 0.071 1.221 0.206 1.799l-0.010-0.053c-1.591-0.21-3.227-1.052-4.514-2.459-2.501-2.748-2.734-6.607-0.518-8.625s6.037-1.428 8.534 1.318c0.216 0.236 0.423 0.492 0.615 0.759l0.017 0.025c-2.595 1.49-4.329 4.17-4.329 7.228z"></path>
<path fill="#fff" style="fill: var(--color1, #fff)" stroke-linejoin="miter" stroke-linecap="butt" stroke-miterlimit="10" stroke-width="0.5786" stroke="#000" d="M15.008 26.222c-0.359 1.030-0.883 1.918-1.55 2.678l0.008-0.009c-2.428 2.809-6.235 3.499-8.502 1.54s-2.136-5.826 0.289-8.636c0.515-0.597 1.104-1.11 1.757-1.533l0.032-0.019c1.075 3.262 4.195 5.689 7.965 5.979z"></path>
<path fill="#fff" style="fill: var(--color1, #fff)" stroke-linejoin="miter" stroke-linecap="butt" stroke-miterlimit="10" stroke-width="0.5786" stroke="#000" d="M24.863 30.98c-2.511 1.634-6.189 0.434-8.216-2.677-0.392-0.591-0.719-1.272-0.949-1.996l-0.016-0.058h0.087c3.917 0 7.257-2.298 8.548-5.527 0.542 0.483 1.012 1.028 1.406 1.628l0.019 0.031c2.026 3.116 1.633 6.964-0.879 8.599z"></path>
<path fill="#fff" style="fill: var(--color1, #fff)" stroke-linejoin="miter" stroke-linecap="butt" stroke-miterlimit="10" stroke-width="0.5786" stroke="#000" d="M29.224 17.77c-1.358 1.4-3.062 2.196-4.685 2.332 0.224-0.701 0.353-1.507 0.353-2.343 0-0.002 0-0.004 0-0.006v0c0-2.9-1.559-5.462-3.94-6.995q0.226-0.278 0.482-0.541c2.585-2.667 6.425-3.139 8.577-1.052s1.798 5.937-0.787 8.605z"></path>
<path fill="#fff" style="fill: var(--color1, #fff)" stroke-linejoin="miter" stroke-linecap="butt" stroke-miterlimit="10" stroke-width="0.5786" stroke="#000" d="M13.153 20.724c0.767 0.215 1.648 0.339 2.558 0.339 0.89 0 1.753-0.119 2.573-0.341l-0.069 0.016c-0.37 1.062-1.362 1.81-2.529 1.81-1.172 0-2.168-0.755-2.528-1.806l-0.006-0.019z"></path>
<path fill="#fff" style="fill: var(--color1, #fff)" stroke-linejoin="miter" stroke-linecap="butt" stroke-miterlimit="10" stroke-width="0.5786" stroke="#000" d="M17.365 15.816c3.343-1.302 3.471 0.457 3.471 0.457"></path>
<path fill="#fff" style="fill: var(--color1, #fff)" stroke-linejoin="miter" stroke-linecap="butt" stroke-miterlimit="10" stroke-width="0.5786" stroke="#000" d="M13.574 15.816c-3.343-1.302-3.471 0.457-3.471 0.457"></path>
</symbol>
<symbol id="icon-glasses-book" viewBox="0 0 29 32">
<title>glasses-book</title>
<path fill="#fff" style="fill: var(--color1, #fff)" stroke-linejoin="round" stroke-linecap="butt" stroke-miterlimit="4" stroke-width="0.7982" stroke="#000" d="M18.588 6.689l-0.040 0.445-0.070 0.748-0.12 1.309c-0.552-0.693-1.348-1.172-2.256-1.307l-0.019-0.002h-1.024c-1.732 0.26-3.045 1.738-3.045 3.523 0 0.318 0.042 0.625 0.12 0.918l-0.006-0.025-3.68 0.926c-0.287-0.508-0.678-0.927-1.146-1.237l-0.013-0.008c-0.123-0.083-0.265-0.164-0.414-0.233l-0.019-0.008v-5.049z"></path>
<path fill="#fff" style="fill: var(--color1, #fff)" stroke-linejoin="round" stroke-linecap="butt" stroke-miterlimit="4" stroke-width="0.7982" stroke="#000" d="M27.957 6.689v24.912h-21.101v-13.424c0.168-0.077 0.31-0.158 0.444-0.249l-0.011 0.007c0.976-0.647 1.61-1.74 1.61-2.982 0-0.377-0.058-0.739-0.167-1.080l0.007 0.025 3.644-0.918c0.594 1.184 1.798 1.982 3.189 1.982 1.964 0 3.556-1.592 3.556-3.556 0-0.002 0-0.003 0-0.005v0c0-0.003 0-0.007 0-0.011 0-0.145-0.009-0.288-0.028-0.428l0.002 0.017 0.283-3.095 0.070-0.748 0.040-0.445z"></path>
<path fill="#000" style="fill: var(--color2, #000)" stroke-linejoin="round" stroke-linecap="butt" stroke-miterlimit="4" stroke-width="0.5987" stroke="#000" d="M18.548 7.134l-0.070 0.748-0.12 1.309c-0.552-0.693-1.348-1.172-2.256-1.307l-0.019-0.002h-1.024c-1.732 0.26-3.045 1.738-3.045 3.523 0 0.318 0.042 0.625 0.12 0.918l-0.006-0.025-3.68 0.926c-0.287-0.508-0.678-0.927-1.146-1.237l-0.013-0.008v-4.845z"></path>
<path fill="#000" style="fill: var(--color2, #000)" stroke-linejoin="round" stroke-linecap="butt" stroke-miterlimit="4" stroke-width="0.5987" stroke="#000" d="M25.986 7.134v21.809h-18.696v-11.007c0.976-0.647 1.61-1.74 1.61-2.982 0-0.377-0.058-0.739-0.167-1.080l0.007 0.025 3.644-0.918c0.594 1.184 1.798 1.982 3.189 1.982 1.964 0 3.556-1.592 3.556-3.556 0-0.002 0-0.003 0-0.005v0c0-0.003 0-0.007 0-0.011 0-0.145-0.009-0.288-0.028-0.428l0.002 0.017 0.283-3.095 0.070-0.748z"></path>
<path fill="#000" style="fill: var(--color2, #000)" stroke-linejoin="round" stroke-linecap="butt" stroke-miterlimit="4" stroke-width="0.5987" stroke="#000" d="M18.698 5.496l-0.102 1.111-0.008 0.082-0.040 0.445-0.070 0.748h-11.762v-2.387h11.981z"></path>
<path fill="#000" style="fill: var(--color2, #000)" stroke-linejoin="round" stroke-linecap="butt" stroke-miterlimit="4" stroke-width="0.5987" stroke="#000" d="M26.558 5.496v2.387h-7.172l0.070-0.748 0.040-0.445 0.008-0.082 0.102-1.112h6.952z"></path>
<path fill="#000" style="fill: var(--color2, #000)" stroke-linejoin="round" stroke-linecap="butt" stroke-miterlimit="4" stroke-width="0.5987" stroke="#000" d="M18.596 6.607v0.082l-0.040 0.445-0.070 0.748-0.12 1.309c-0.552-0.693-1.348-1.172-2.256-1.307l-0.019-0.002h-1.024c-1.732 0.26-3.045 1.738-3.045 3.523 0 0.318 0.042 0.625 0.12 0.918l-0.006-0.025-3.688 0.926c-0.287-0.508-0.678-0.927-1.146-1.237l-0.013-0.008c-0.123-0.083-0.265-0.164-0.414-0.233l-0.019-0.008c-0.046-0.024-0.092-0.044-0.14-0.064v-5.067z"></path>
<path fill="#000" style="fill: var(--color2, #000)" stroke-linejoin="round" stroke-linecap="butt" stroke-miterlimit="4" stroke-width="0.5987" stroke="#000" d="M26.55 6.607v22.863h-19.833v-11.229c0.048-0.020 0.094-0.040 0.14-0.064 0.168-0.077 0.31-0.158 0.444-0.249l-0.011 0.007c0.976-0.647 1.61-1.74 1.61-2.982 0-0.377-0.058-0.739-0.167-1.080l0.007 0.025 3.644-0.918c0.594 1.184 1.798 1.982 3.189 1.982 1.964 0 3.556-1.592 3.556-3.556 0-0.002 0-0.003 0-0.005v0c0-0.003 0-0.007 0-0.011 0-0.145-0.009-0.288-0.028-0.428l0.002 0.017 0.283-3.095 0.070-0.748 0.040-0.445v-0.082z"></path>
<path fill="#000" style="fill: var(--color2, #000)" stroke-linejoin="round" stroke-linecap="butt" stroke-miterlimit="4" stroke-width="0.5987" stroke="#000" d="M27.957 6.639h0.696v25.014h-0.696v-25.014z"></path>
<path fill="#fff" style="fill: var(--color1, #fff)" stroke-linejoin="round" stroke-linecap="butt" stroke-miterlimit="4" stroke-width="0.3991" stroke="#000" d="M24.355 2.526l-0.517 0.998-3.873-2.029-0.365 3.991-0.102 1.111v0.082l-0.040 0.445-0.070 0.748-0.283 3.095c0.017 0.124 0.026 0.267 0.026 0.412 0 0.004 0 0.008-0 0.012v-0.001c0 0.001 0 0.003 0 0.005 0 1.964-1.592 3.556-3.556 3.556-1.391 0-2.595-0.798-3.18-1.962l-0.009-0.020-3.644 0.918c0.101 0.316 0.16 0.678 0.16 1.055 0 1.242-0.635 2.335-1.597 2.974l-0.013 0.008c-0.123 0.083-0.265 0.164-0.414 0.233l-0.019 0.008c-0.046 0.024-0.092 0.044-0.14 0.064-0.405 0.174-0.877 0.276-1.373 0.276-1.628 0-3.002-1.094-3.424-2.587l-0.006-0.025-0.259 0.032-1.447-11.784 0.541-0.066 0.114-0.229 4.454 2.319-0.519 0.998-3.592-1.876 0.998 8.010c0.61-1.136 1.79-1.896 3.147-1.896 0.496 0 0.967 0.101 1.396 0.284l-0.023-0.009c0.048 0.020 0.094 0.040 0.14 0.064 0.168 0.077 0.31 0.158 0.444 0.249l-0.011-0.007c0.478 0.319 0.867 0.736 1.142 1.225l0.009 0.018 3.68-0.928c-0.072-0.268-0.114-0.576-0.114-0.893 0-1.785 1.313-3.262 3.026-3.52l0.020-0.002h1.024c0.931 0.135 1.731 0.615 2.279 1.304l0.006 0.007 0.12-1.309 0.070-0.748 0.040-0.445v-0.082l0.587-6.408 0.688 0.062 0.184 0.018 0.026 0.014z"></path>
<path fill="#fff" style="fill: var(--color1, #fff)" stroke-linejoin="round" stroke-linecap="butt" stroke-miterlimit="4" stroke-width="0.3991" stroke="#000" d="M20.083 0.281l-0.002 0.012-0.026-0.014 0.028 0.002z"></path>
<path fill="#fff" style="fill: var(--color1, #fff)" stroke-linejoin="round" stroke-linecap="butt" stroke-miterlimit="4" stroke-width="0.3991" stroke="#000" d="M16.084 7.882h-1.024c0.153-0.027 0.331-0.044 0.513-0.046l0.002-0c0.181 0.002 0.357 0.019 0.529 0.049l-0.020-0.003z"></path>
<path fill="#fff" style="fill: var(--color1, #fff)" stroke-linejoin="round" stroke-linecap="butt" stroke-miterlimit="4" stroke-width="0.3991" stroke="#000" d="M20.055 0.279l-0.184-0.018 0.032-0.062 0.152 0.080z"></path>
</symbol>
<symbol id="icon-piano-keyboard" viewBox="0 0 42 32">
<title>piano-keyboard</title>
<path fill="#fff" style="fill: var(--color1, #fff)" stroke-linejoin="round" stroke-linecap="round" stroke-miterlimit="4" stroke-width="0.9282" stroke="#000" d="M0.464 0.464h41.167v31.072h-41.167v-31.072z"></path>
<path fill="#000" style="fill: var(--color2, #000)" stroke-linejoin="round" stroke-linecap="round" stroke-miterlimit="4" stroke-width="0.9282" stroke="#000" d="M4.972 0.464h3.496v18.161h-3.496v-18.161z"></path>
<path fill="#000" style="fill: var(--color2, #000)" stroke-linejoin="round" stroke-linecap="round" stroke-miterlimit="4" stroke-width="0.9282" stroke="#000" d="M10.89 0.464h3.496v18.161h-3.496v-18.161z"></path>
<path stroke-linejoin="round" stroke-linecap="round" stroke-miterlimit="4" stroke-width="0.9282" d="M6.72 19.389v12.147"></path>
<path stroke-linejoin="round" stroke-linecap="round" stroke-miterlimit="4" stroke-width="0.9282" d="M12.639 19.389v12.147"></path>
<path stroke-linejoin="round" stroke-linecap="round" stroke-miterlimit="4" stroke-width="0.9282" d="M18.288 0.464v31.072"></path>
<path fill="#000" style="fill: var(--color2, #000)" stroke-linejoin="round" stroke-linecap="round" stroke-miterlimit="4" stroke-width="0.9282" stroke="#000" d="M27.672 0.464h3.496v18.161h-3.496v-18.161z"></path>
<path fill="#000" style="fill: var(--color2, #000)" stroke-linejoin="round" stroke-linecap="round" stroke-miterlimit="4" stroke-width="0.9282" stroke="#000" d="M21.289 0.464h3.496v18.161h-3.496v-18.161z"></path>
<path fill="#000" style="fill: var(--color2, #000)" stroke-linejoin="round" stroke-linecap="round" stroke-miterlimit="4" stroke-width="0.9282" stroke="#000" d="M33.528 0.464h3.496v18.161h-3.496v-18.161z"></path>
<path stroke-linejoin="round" stroke-linecap="round" stroke-miterlimit="4" stroke-width="0.9282" d="M23.037 19.389v12.147"></path>
<path stroke-linejoin="round" stroke-linecap="round" stroke-miterlimit="4" stroke-width="0.9282" d="M29.42 19.275v12.15"></path>
<path stroke-linejoin="round" stroke-linecap="round" stroke-miterlimit="4" stroke-width="0.9282" d="M35.276 19.389v12.147"></path>
</symbol>
<symbol id="icon-beret-tata" viewBox="0 0 49 32">
<title>beret-tata</title>
<path fill="#000" style="fill: var(--color2, #000)" stroke="#000" style="stroke: var(--color2, #000)" stroke-linejoin="miter" stroke-linecap="butt" stroke-miterlimit="10" stroke-width="0.4417" d="M48.356 17.040c-0.751 0.839-1.965 1.113-3.313 0.883v-0.967c-0.344 0.23-0.72 0.442-1.122 0.667 0.317 0.121 0.694 0.225 1.082 0.294l0.039 0.006v5.106h-0.168c-2.301-1.1-5.892-1.983-10.234-2.509v0c-2.749-0.335-5.931-0.526-9.158-0.526-3.424 0-6.799 0.215-10.11 0.632l0.394-0.041c-4.108 0.53-7.509 1.387-9.717 2.442h-1.047v-3.931c-1.475 0.543-2.897 0.442-3.825-0.38-1.665-1.493-1.117-4.766 1.188-7.332l0.318-0.34c2.261-3.781 11.404-6.625 22.336-6.625 10.039 0 18.551 2.385 21.642 5.698 0.011 0.009 0.022 0.019 0.031 0.031l0 0c2.337 2.292 3.087 5.309 1.661 6.89z"></path>
<path fill="#000" style="fill: var(--color2, #000)" stroke="#000" style="stroke: var(--color2, #000)" stroke-linejoin="miter" stroke-linecap="butt" stroke-miterlimit="10" stroke-width="0.4417" d="M44.875 23.025h-38.824c2.208-1.056 5.605-1.913 9.717-2.442 2.736 0.456 5.889 0.716 9.102 0.716 0.061 0 0.122-0 0.183-0l-0.009 0c0.057 0 0.125 0 0.192 0 3.328 0 6.59-0.284 9.763-0.83l-0.34 0.048c4.324 0.526 7.915 1.409 10.216 2.509z"></path>
<path fill="#000" style="fill: var(--color2, #000)" stroke="#000" style="stroke: var(--color2, #000)" stroke-linejoin="miter" stroke-linecap="butt" stroke-miterlimit="10" stroke-width="0.4417" d="M34.637 20.516c-2.833 0.498-6.095 0.782-9.423 0.782-0.068 0-0.135-0-0.203-0l0.011 0c-0.051 0-0.112 0-0.173 0-3.213 0-6.366-0.26-9.438-0.761l0.336 0.045c2.917-0.377 6.291-0.592 9.716-0.592 3.227 0 6.409 0.191 9.536 0.562l-0.378-0.037z"></path>
<path fill="#000" style="fill: var(--color2, #000)" stroke="#000" style="stroke: var(--color2, #000)" stroke-linejoin="miter" stroke-linecap="butt" stroke-miterlimit="10" stroke-width="0.4417" d="M45.043 16.952v0.967c-0.428-0.076-0.805-0.18-1.167-0.315l0.045 0.015c0.402-0.216 0.777-0.437 1.122-0.667z"></path>
<path fill="#fff" style="fill: var(--color1, #fff)" stroke="#fff" style="stroke: var(--color1, #fff)" stroke-linejoin="miter" stroke-linecap="butt" stroke-miterlimit="10" stroke-width="0.4417" d="M47.658 25.883c0 3.268-9.938 5.919-22.195 5.919s-22.19-2.65-22.19-5.896c0-1.034 1.007-2.010 2.778-2.858 2.208-1.056 5.605-1.913 9.717-2.442 2.917-0.377 6.291-0.592 9.716-0.592 3.227 0 6.409 0.191 9.536 0.562l-0.378-0.037c4.342 0.526 7.95 1.409 10.234 2.509 1.771 0.826 2.783 1.802 2.783 2.836z"></path>
<path fill="#000" style="fill: var(--color2, #000)" stroke="#000" style="stroke: var(--color2, #000)" stroke-linejoin="miter" stroke-linecap="butt" stroke-miterlimit="10" stroke-width="0.4417" d="M35.926 0.29c0.71 0.41 0.32 2.413-0.87 4.475s-2.731 3.401-3.441 2.991c-0.71-0.41-0.32-2.413 0.87-4.475s2.731-3.401 3.441-2.991z"></path>
<path fill="#fff" style="fill: var(--color1, #fff)" stroke="#000" style="stroke: var(--color2, #000)" stroke-linejoin="miter" stroke-linecap="butt" stroke-miterlimit="10" stroke-width="0.4417" d="M42.53 15.19c-1.453 2.014-3.467 3.092-4.62 2.46-0.769-0.216-1.608-1.21-2.067-2.553-0.587-1.714-0.34-3.352 0.552-3.653 0.596-0.203 1.325 0.234 1.921 1.060l0.159-0.23c1.519-2.111 3.657-3.171 4.779-2.363s0.795 3.167-0.724 5.278z"></path>
</symbol>
</defs>
</svg>
