<svg xmlns="http://www.w3.org/2000/svg" viewBox="0 0 252.2 230.4"><defs><style>.cls-1{fill:#fff;}.cls-1,.cls-2{stroke:#000;stroke-miterlimit:10;stroke-width:4px;}.cls-2{fill:none;}</style></defs><title>bunny-camera</title><g id="Layer_1" data-name="Layer 1"><path class="cls-1" d="M148.38,139c-26.4,0-47.8,21-47.8,47s21.4,47,47.8,47,47.78-21,47.78-47S174.77,139,148.38,139Zm78.25-16a16.23,16.23,0,1,0,16.5,16.23A16.36,16.36,0,0,0,226.63,123.05Zm-78.25,16c-26.4,0-47.8,21-47.8,47s21.4,47,47.8,47,47.78-21,47.78-47S174.77,139,148.38,139Zm78.25-16a16.23,16.23,0,1,0,16.5,16.23A16.36,16.36,0,0,0,226.63,123.05Z" transform="translate(-23.9 -32.11)"/><path class="cls-1" d="M95.7,110.61V89.86H42.85v20.75h-17v149.9H274.1V110.61Zm52.68,122.44c-26.4,0-47.8-21-47.8-47s21.4-47,47.8-47,47.78,21,47.78,47S174.77,233.05,148.38,233.05Zm78.25-77.54a16.23,16.23,0,1,1,16.5-16.23A16.36,16.36,0,0,1,226.63,155.51Z" transform="translate(-23.9 -32.11)"/><path class="cls-1" d="M135.82,78.58c0,12.58-3.76,23.94-9.8,32H95.7V89.86H72.86a60.82,60.82,0,0,1-1-11.28c0-24.56,14.32-44.47,32-44.47S135.82,54,135.82,78.58Z" transform="translate(-23.9 -32.11)"/><path class="cls-2" d="M218.64,78.58c0,12.58-3.76,23.94-9.8,32h-44.4c-6-8.09-9.8-19.45-9.8-32,0-24.56,14.33-44.47,32-44.47S218.64,54,218.64,78.58Z" transform="translate(-23.9 -32.11)"/><path class="cls-1" d="M123.45,83.79c0,11.52-4.06,21.57-10.06,26.82H95.7V89.86H84.58a46.2,46.2,0,0,1-.39-6.07c0-17,8.79-30.71,19.63-30.71S123.45,66.83,123.45,83.79Z" transform="translate(-23.9 -32.11)"/><path class="cls-1" d="M206.27,86c0,10.08-3.1,19-7.89,24.62H174.9C170.11,105,167,96.07,167,86c0-16.95,8.79-30.7,19.63-30.7S206.27,69,206.27,86Z" transform="translate(-23.9 -32.11)"/></g></svg>