<svg xmlns="http://www.w3.org/2000/svg" viewBox="0 0 145.09 160.36"><defs><style>.cls-1,.cls-3{fill:#fff;}.cls-1,.cls-2,.cls-3{stroke:#000;stroke-linejoin:round;}.cls-1{stroke-width:4px;}.cls-2{stroke-width:3px;}.cls-3{stroke-width:2px;}</style></defs><title>glasses-book</title><g id="Layer_2" data-name="Layer 2"><path class="cls-1" d="M150.1,72.25l-.2,2.23-.35,3.75-.6,6.56a17.76,17.76,0,0,0-11.4-6.56h-5.13a17.84,17.84,0,0,0-14.69,22.13L99.29,105a17.82,17.82,0,0,0-5.81-6.24,15.83,15.83,0,0,0-2.17-1.21V72.25Z" transform="translate(-56.95 -38.73)"/><path class="cls-1" d="M197.05,72.25V197.09H91.31V129.82a15.83,15.83,0,0,0,2.17-1.21,17.87,17.87,0,0,0,7.27-20.23h0l18.26-4.6a17.82,17.82,0,0,0,33.8-7.91,16.42,16.42,0,0,0-.13-2.12l1.42-15.51.35-3.75.2-2.23Z" transform="translate(-56.95 -38.73)"/></g><g id="Layer_1" data-name="Layer 1"><path class="cls-2" d="M149.9,74.48l-.35,3.75-.6,6.56a17.76,17.76,0,0,0-11.4-6.56h-5.13a17.84,17.84,0,0,0-14.69,22.13L99.29,105a17.82,17.82,0,0,0-5.81-6.24V74.48Z" transform="translate(-56.95 -38.73)"/><path class="cls-2" d="M187.17,74.48V183.77H93.48V128.61a17.87,17.87,0,0,0,7.27-20.23h0l18.26-4.6a17.82,17.82,0,0,0,33.8-7.91,16.42,16.42,0,0,0-.13-2.12l1.42-15.51.35-3.75Z" transform="translate(-56.95 -38.73)"/><polygon class="cls-2" points="93.7 27.54 93.19 33.11 93.15 33.52 92.95 35.75 92.6 39.5 33.66 39.5 33.66 27.54 93.7 27.54"/><polygon class="cls-2" points="133.09 27.54 133.09 39.5 97.15 39.5 97.5 35.75 97.7 33.52 97.74 33.11 98.25 27.54 133.09 27.54"/><path class="cls-2" d="M150.14,71.84l0,.41-.2,2.23-.35,3.75-.6,6.56a17.76,17.76,0,0,0-11.4-6.56h-5.13a17.84,17.84,0,0,0-14.69,22.13L99.29,105a17.82,17.82,0,0,0-5.81-6.24,15.83,15.83,0,0,0-2.17-1.21c-.23-.12-.46-.22-.7-.32V71.84Z" transform="translate(-56.95 -38.73)"/><path class="cls-2" d="M190,71.84V186.41H90.61V130.14c.24-.1.47-.2.7-.32a15.83,15.83,0,0,0,2.17-1.21,17.87,17.87,0,0,0,7.27-20.23h0l18.26-4.6a17.82,17.82,0,0,0,33.8-7.91,16.42,16.42,0,0,0-.13-2.12l1.42-15.51.35-3.75.2-2.23,0-.41Z" transform="translate(-56.95 -38.73)"/><rect class="cls-2" x="140.1" y="33.27" width="3.49" height="125.35"/></g><g id="Layer_4" data-name="Layer 4"><path class="cls-3" d="M179,51.39l-2.59,5L157,46.22l-1.83,20-.51,5.57,0,.41-.2,2.23-.35,3.75-1.42,15.51a16.42,16.42,0,0,1,.13,2.12,17.82,17.82,0,0,1-33.8,7.91l-18.26,4.6h0a17.87,17.87,0,0,1-7.27,20.23,15.83,15.83,0,0,1-2.17,1.21c-.23.12-.46.22-.7.32a17.83,17.83,0,0,1-24.07-11.71l-1.3.16L58,59.48l2.71-.33L61.28,58,83.6,69.62l-2.6,5-18-9.4L68,105.36a17.84,17.84,0,0,1,22.65-8.12c.24.1.47.2.7.32a15.83,15.83,0,0,1,2.17,1.21A17.82,17.82,0,0,1,99.29,105l18.44-4.65a17.84,17.84,0,0,1,14.69-22.13h5.13A17.76,17.76,0,0,1,149,84.79l.6-6.56.35-3.75.2-2.23,0-.41.51-5.57,2.43-26.54,3.45.31.92.09.13.07Z" transform="translate(-56.95 -38.73)"/><polygon class="cls-3" points="100.64 1.41 100.63 1.47 100.5 1.4 100.64 1.41"/><path class="cls-3" d="M137.55,78.23h-5.13A16.81,16.81,0,0,1,135,78,16.59,16.59,0,0,1,137.55,78.23Z" transform="translate(-56.95 -38.73)"/><polygon class="cls-3" points="100.5 1.4 99.58 1.31 99.74 1 100.5 1.4"/></g></svg>