<svg id="Layer_1" data-name="Layer 1" xmlns="http://www.w3.org/2000/svg" viewBox="0 0 219.22 221.24">
    <defs>
        <style>
            .cls-1{fill:#fff;stroke:#000;stroke-miterlimit:10;stroke-width:4px;}
            path {
                animation-name: stroke-change; 
                animation-duration: 15s;
            }

            @keyframes stroke-change{
                from {fill: black;}
                to {fill: yellow;}
            } 
        </style>
    </defs>
    <title>hobi-flower</title>
    <path class="cls-1" d="M199.49,150a55,55,0,0,1-2.44,16.24c-.45,1.46-1,2.89-1.53,4.3-8.93,22.32-32,38.21-59.1,38.21h-.6c-1.57,0-3.13-.07-4.67-.19-26.07-2-47.64-18.79-55-41.33-.55-1.67-1-3.36-1.41-5.09A54.6,54.6,0,0,1,73.35,150c0-21.14,12-39.67,30-50l.85-.48a65.14,65.14,0,0,1,16.26-6.34,67.89,67.89,0,0,1,35,.8,64.84,64.84,0,0,1,13.27,5.54c1.22.68,2.41,1.39,3.57,2.14C188.71,112.24,199.49,130,199.49,150Z" transform="translate(-27.39 -27.26)"/>
    <path class="cls-1" d="M173.93,75.76a55,55,0,0,1-5.25,23.74A64.84,64.84,0,0,0,155.41,94a67.89,67.89,0,0,0-35-.8,65.14,65.14,0,0,0-16.26,6.34,54.88,54.88,0,0,1-5.26-23.74c0-25.68,16.8-46.5,37.51-46.5S173.93,50.08,173.93,75.76Z" transform="translate(-27.39 -27.26)"/>
    <path class="cls-1" d="M73.35,150a54.6,54.6,0,0,0,1.35,12.13c-11-1.45-22.31-7.27-31.21-17-17.29-19-18.9-45.68-3.58-59.63s41.74-9.87,59,9.11a57.91,57.91,0,0,1,4.37,5.42C85.34,110.33,73.35,128.86,73.35,150Z" transform="translate(-27.39 -27.26)"/>
    <path class="cls-1" d="M131.15,208.55A55.26,55.26,0,0,1,120.49,227c-16.79,19.42-43.11,24.19-58.78,10.65s-14.77-40.28,2-59.71a56.24,56.24,0,0,1,12.37-10.73C83.51,189.76,105.08,206.54,131.15,208.55Z" transform="translate(-27.39 -27.26)"/>
    <path class="cls-1" d="M199.29,241.45c-17.36,11.3-42.79,3-56.8-18.51a56.48,56.48,0,0,1-6.67-14.2h.6c27.08,0,50.17-15.89,59.1-38.21A56.26,56.26,0,0,1,205.37,182C219.38,203.54,216.66,230.15,199.29,241.45Z" transform="translate(-27.39 -27.26)"/>
    <path class="cls-1" d="M229.44,150.12c-9.39,9.68-21.17,15.18-32.39,16.12A55,55,0,0,0,199.49,150c0-20.05-10.78-37.76-27.24-48.36q1.56-1.92,3.33-3.74c17.87-18.44,44.42-21.7,59.3-7.27S247.31,131.68,229.44,150.12Z" transform="translate(-27.39 -27.26)"/>
    <path class="cls-1" d="M118.33,170.54a67.84,67.84,0,0,0,35,.1,18.47,18.47,0,0,1-35-.1Z" transform="translate(-27.39 -27.26)"/>
    <path class="cls-1" d="M147.45,136.61c23.11-9,24,3.16,24,3.16" transform="translate(-27.39 -27.26)"/>
    <path class="cls-1" d="M121.24,136.61c-23.11-9-24,3.16-24,3.16" transform="translate(-27.39 -27.26)"/>
</svg>